<?xml version="1.0" encoding="UTF-8"?>
<!DOCTYPE svg PUBLIC "-//W3C//DTD SVG 1.1//EN" "http://www.w3.org/Graphics/SVG/1.1/DTD/svg11.dtd">
<svg version="1.1" xmlns="http://www.w3.org/2000/svg" xmlns:xlink="http://www.w3.org/1999/xlink" x="0" y="0" width="304.747" height="422.51" viewBox="0, 0, 304.747, 422.51">
  <defs>
    <radialGradient id="Gradient_1" gradientUnits="userSpaceOnUse" cx="158.801" cy="266.186" r="184.905">
      <stop offset="0" stop-color="#FFFFFF"/>
      <stop offset="1" stop-color="#BEBEBE"/>
    </radialGradient>
    <clipPath id="Clip_1">
      <path d="M124.961,214.719 L375.039,214.719 L375.039,452.291 L124.961,452.291 z M295.018,241.719 C277.611,241.719 260.904,249.822 250,262.627 C239.096,249.822 222.389,241.719 204.982,241.719 C174.17,241.719 149.961,265.928 149.961,296.74 C149.961,334.555 183.974,365.367 235.494,412.086 L250,425.291 L264.506,412.186 C316.026,365.367 350.039,334.555 350.039,296.74 C350.039,265.928 325.83,241.719 295.018,241.719 z"/>
    </clipPath>
    <filter id="Shadow_2">
      <feGaussianBlur in="SourceAlpha" stdDeviation="12"/>
      <feOffset dx="0" dy="2" result="offsetblur"/>
      <feFlood flood-color="#3D3D3D"/>
      <feComposite in2="offsetblur" operator="in"/>
    </filter>
    <radialGradient id="Gradient_2" gradientUnits="userSpaceOnUse" cx="181.245" cy="270.79" r="134.399">
      <stop offset="0" stop-color="#E58F8F"/>
      <stop offset="1" stop-color="#FF5454"/>
    </radialGradient>
    <clipPath id="Clip_3">
      <path d="M150.589,37.431 L349.411,37.431 L349.411,240.254 L150.589,240.254 z M250,64.431 C208.904,64.431 175.589,97.746 175.589,138.842 C175.589,179.939 208.904,213.254 250,213.254 C291.096,213.254 324.411,179.939 324.411,138.842 C324.411,97.746 291.096,64.431 250,64.431 z"/>
    </clipPath>
    <filter id="Shadow_4">
      <feGaussianBlur in="SourceAlpha" stdDeviation="12"/>
      <feOffset dx="0" dy="2" result="offsetblur"/>
      <feFlood flood-color="#3D3D3D"/>
      <feComposite in2="offsetblur" operator="in"/>
    </filter>
    <radialGradient id="Gradient_3" gradientUnits="userSpaceOnUse" cx="198.859" cy="87.999" r="104.173">
      <stop offset="0" stop-color="#FFFFFF"/>
      <stop offset="1" stop-color="#DCDCDC"/>
    </radialGradient>
    <clipPath id="Clip_5">
      <path d="M95.95,256.908 L349.411,256.908 L349.411,463.942 L95.95,463.942 z M139.208,283.908 C133.68,289.711 129.659,300.302 127.055,307.502 C120.753,324.935 117.864,345.04 125.649,362.5 C134.821,383.069 156.111,393.819 176.84,399.401 L316.943,436.942 C316.943,436.942 364.75,383.648 218.454,344.448 C218.454,344.448 131.089,314.307 139.199,284.039 L139.208,283.908 z"/>
    </clipPath>
    <filter id="Shadow_6">
      <feGaussianBlur in="SourceAlpha" stdDeviation="12"/>
      <feOffset dx="0" dy="2" result="offsetblur"/>
      <feFlood flood-color="#3D3D3D"/>
      <feComposite in2="offsetblur" operator="in"/>
    </filter>
    <radialGradient id="Gradient_4" gradientUnits="userSpaceOnUse" cx="236.302" cy="254.322" r="120.116" gradientTransform="matrix(0.966, 0.259, -0.259, 0.966, 0, 0)">
      <stop offset="0" stop-color="#FFFFFF"/>
      <stop offset="1" stop-color="#EAEAEA"/>
    </radialGradient>
    <clipPath id="Clip_7">
      <path d="M149.216,256.908 L402.594,256.908 L402.594,463.942 L149.216,463.942 z M359.419,283.908 L359.428,284.039 C367.538,314.307 280.173,344.448 280.173,344.448 C133.877,383.648 181.684,436.942 181.684,436.942 L321.787,399.401 C339.1,394.456 356.556,386.896 367.521,371.926 C383.04,350.74 378.412,322.457 368.488,299.898 C366.067,294.395 363.282,288.555 359.419,283.908 z"/>
    </clipPath>
    <filter id="Shadow_8">
      <feGaussianBlur in="SourceAlpha" stdDeviation="12"/>
      <feOffset dx="0" dy="2" result="offsetblur"/>
      <feFlood flood-color="#3D3D3D"/>
      <feComposite in2="offsetblur" operator="in"/>
    </filter>
    <radialGradient id="Gradient_5" gradientUnits="userSpaceOnUse" cx="93.943" cy="383.376" r="120.116" gradientTransform="matrix(0.966, -0.259, 0.259, 0.966, 0, 0)">
      <stop offset="0" stop-color="#FFFFFF"/>
      <stop offset="1" stop-color="#D2D2D2"/>
    </radialGradient>
  </defs>
  <g id="Layer_1" transform="translate(-96.94, -40.431)">
    <path d="M250,224.241 L256.815,224.413 C314.228,229.295 360.455,263.05 375.414,320.851 L366.653,320.115 L366.653,357.271 L145.097,357.271 L145.097,312.939 L125.044,312.939 C138.427,271.582 175.175,239.119 216.903,228.41 C227.814,225.61 238.782,224.524 250,224.241 z" fill="url(#Gradient_1)"/>
    <g>
      <path d="M295.018,241.719 C325.83,241.719 350.039,265.928 350.039,296.74 C350.039,334.555 316.026,365.367 264.506,412.186 L250,425.291 L235.494,412.086 C183.974,365.367 149.961,334.555 149.961,296.74 C149.961,265.928 174.17,241.719 204.982,241.719 C222.389,241.719 239.096,249.822 250,262.627 C260.904,249.822 277.611,241.719 295.018,241.719 z" clip-path="url(#Clip_1)" filter="url(#Shadow_2)" fill="rgba(0,0,0,0.319)"/>
      <path d="M250,425.291 L235.494,412.086 C183.974,365.367 149.961,334.555 149.961,296.74 C149.961,265.928 174.17,241.719 204.982,241.719 C222.389,241.719 239.096,249.822 250,262.627 C260.904,249.822 277.611,241.719 295.018,241.719 C325.83,241.719 350.039,265.928 350.039,296.74 C350.039,334.555 316.026,365.367 264.506,412.186 L250,425.291 z" fill="url(#Gradient_2)"/>
    </g>
    <g>
      <path d="M250,64.431 C291.096,64.431 324.411,97.746 324.411,138.842 C324.411,179.939 291.096,213.254 250,213.254 C208.904,213.254 175.589,179.939 175.589,138.842 C175.589,97.746 208.904,64.431 250,64.431 z" clip-path="url(#Clip_3)" filter="url(#Shadow_4)" fill="rgba(0,0,0,0.319)"/>
      <path d="M250,213.254 C208.904,213.254 175.589,179.939 175.589,138.842 C175.589,97.746 208.904,64.431 250,64.431 C291.096,64.431 324.411,97.746 324.411,138.842 C324.411,179.939 291.096,213.254 250,213.254 z" fill="url(#Gradient_3)"/>
    </g>
    <g>
      <path d="M139.208,283.908 L139.199,284.039 C131.089,314.307 218.454,344.448 218.454,344.448 C364.75,383.648 316.943,436.942 316.943,436.942 L176.84,399.401 C156.111,393.819 134.821,383.069 125.649,362.5 C117.864,345.04 120.753,324.935 127.055,307.502 C129.659,300.302 133.68,289.711 139.208,283.908 z" clip-path="url(#Clip_5)" filter="url(#Shadow_6)" fill="rgba(0,0,0,0.319)"/>
      <path d="M139.2,284.039 C140.354,279.732 78.222,372.977 176.84,399.401 L316.943,436.942 C316.943,436.942 364.75,383.648 218.454,344.448 C218.454,344.448 131.089,314.307 139.2,284.039 z" fill="url(#Gradient_4)"/>
    </g>
    <g>
      <path d="M359.419,283.908 C363.282,288.555 366.067,294.395 368.488,299.898 C378.412,322.457 383.04,350.74 367.521,371.926 C356.556,386.896 339.1,394.456 321.787,399.401 L181.684,436.942 C181.684,436.942 133.877,383.648 280.173,344.448 C280.173,344.448 367.538,314.307 359.428,284.039 L359.419,283.908 z" clip-path="url(#Clip_7)" filter="url(#Shadow_8)" fill="rgba(0,0,0,0.319)"/>
      <path d="M359.428,284.039 C358.274,279.732 420.405,372.977 321.787,399.401 L181.684,436.942 C181.684,436.942 133.877,383.648 280.173,344.448 C280.173,344.448 367.538,314.307 359.428,284.039 z" fill="url(#Gradient_5)"/>
    </g>
  </g>
</svg>
