<?xml version="1.0" encoding="UTF-8"?>
<!DOCTYPE svg PUBLIC "-//W3C//DTD SVG 1.1//EN" "http://www.w3.org/Graphics/SVG/1.1/DTD/svg11.dtd">
<svg version="1.1" xmlns="http://www.w3.org/2000/svg" xmlns:xlink="http://www.w3.org/1999/xlink" x="0" y="0" width="224.465" height="386.45" viewBox="0, 0, 224.465, 386.45">
  <defs>
    <linearGradient id="Gradient_1" gradientUnits="userSpaceOnUse" x1="176.64" y1="119.369" x2="335.36" y2="392.631">
      <stop offset="0" stop-color="#FFFFFF"/>
      <stop offset="1" stop-color="#DBDBDB"/>
    </linearGradient>
    <linearGradient id="Gradient_2" gradientUnits="userSpaceOnUse" x1="176.64" y1="119.369" x2="357.494" y2="416.812">
      <stop offset="0" stop-color="#FFFFFF" stop-opacity="0"/>
      <stop offset="1" stop-color="#58B8E8" stop-opacity="0.431"/>
    </linearGradient>
    <clipPath id="Clip_1">
      <path d="M166.367,102.282 L223.625,102.282 L223.625,163.54 L166.367,163.54 z M209.625,110.282 L180.367,110.282 C175.949,110.282 172.367,113.864 172.367,118.282 L172.367,147.54 C172.367,151.958 175.949,155.54 180.367,155.54 L209.625,155.54 C214.043,155.54 217.625,151.958 217.625,147.54 L217.625,118.282 C217.625,113.864 214.043,110.282 209.625,110.282 z"/>
    </clipPath>
    <filter id="Shadow_2">
      <feGaussianBlur in="SourceAlpha" stdDeviation="2.5"/>
      <feOffset dx="0" dy="2" result="offsetblur"/>
      <feFlood flood-color="#767676"/>
      <feComposite in2="offsetblur" operator="in"/>
    </filter>
    <clipPath id="Clip_3">
      <path d="M227.371,102.282 L284.629,102.282 L284.629,163.54 L227.371,163.54 z M270.629,110.282 L241.371,110.282 C236.953,110.282 233.371,113.864 233.371,118.282 L233.371,147.54 C233.371,151.958 236.953,155.54 241.371,155.54 L270.629,155.54 C275.047,155.54 278.629,151.958 278.629,147.54 L278.629,118.282 C278.629,113.864 275.047,110.282 270.629,110.282 z"/>
    </clipPath>
    <filter id="Shadow_4">
      <feGaussianBlur in="SourceAlpha" stdDeviation="2.5"/>
      <feOffset dx="0" dy="2" result="offsetblur"/>
      <feFlood flood-color="#000000"/>
      <feComposite in2="offsetblur" operator="in"/>
    </filter>
    <linearGradient id="Gradient_3" gradientUnits="userSpaceOnUse" x1="239.999" y1="116.91" x2="272.001" y2="148.912">
      <stop offset="0" stop-color="#FFFFFF"/>
      <stop offset="1" stop-color="#DBDBDB"/>
    </linearGradient>
    <clipPath id="Clip_5">
      <path d="M290.807,102.282 L348.065,102.282 L348.065,163.54 L290.807,163.54 z M334.065,110.282 L304.807,110.282 C300.388,110.282 296.807,113.864 296.807,118.282 L296.807,147.54 C296.807,151.958 300.388,155.54 304.807,155.54 L334.065,155.54 C338.483,155.54 342.065,151.958 342.065,147.54 L342.065,118.282 C342.065,113.864 338.483,110.282 334.065,110.282 z"/>
    </clipPath>
    <filter id="Shadow_6">
      <feGaussianBlur in="SourceAlpha" stdDeviation="2.5"/>
      <feOffset dx="0" dy="2" result="offsetblur"/>
      <feFlood flood-color="#000000"/>
      <feComposite in2="offsetblur" operator="in"/>
    </filter>
    <linearGradient id="Gradient_4" gradientUnits="userSpaceOnUse" x1="303.435" y1="116.91" x2="335.437" y2="148.912">
      <stop offset="0" stop-color="#FFFFFF"/>
      <stop offset="1" stop-color="#DBDBDB"/>
    </linearGradient>
    <clipPath id="Clip_7">
      <path d="M166.367,161.603 L223.625,161.603 L223.625,222.86 L166.367,222.86 z M209.625,169.603 L180.367,169.603 C175.949,169.603 172.367,173.184 172.367,177.603 L172.367,206.86 C172.367,211.279 175.949,214.86 180.367,214.86 L209.625,214.86 C214.043,214.86 217.625,211.279 217.625,206.86 L217.625,177.603 C217.625,173.184 214.043,169.603 209.625,169.603 z"/>
    </clipPath>
    <filter id="Shadow_8">
      <feGaussianBlur in="SourceAlpha" stdDeviation="2.5"/>
      <feOffset dx="0" dy="2" result="offsetblur"/>
      <feFlood flood-color="#000000"/>
      <feComposite in2="offsetblur" operator="in"/>
    </filter>
    <linearGradient id="Gradient_5" gradientUnits="userSpaceOnUse" x1="178.995" y1="176.231" x2="210.997" y2="208.233">
      <stop offset="0" stop-color="#FFFFFF"/>
      <stop offset="1" stop-color="#DBDBDB"/>
    </linearGradient>
    <clipPath id="Clip_9">
      <path d="M227.371,161.603 L284.629,161.603 L284.629,222.86 L227.371,222.86 z M270.629,169.603 L241.371,169.603 C236.953,169.603 233.371,173.184 233.371,177.603 L233.371,206.86 C233.371,211.279 236.953,214.86 241.371,214.86 L270.629,214.86 C275.047,214.86 278.629,211.279 278.629,206.86 L278.629,177.603 C278.629,173.184 275.047,169.603 270.629,169.603 z"/>
    </clipPath>
    <filter id="Shadow_10">
      <feGaussianBlur in="SourceAlpha" stdDeviation="2.5"/>
      <feOffset dx="0" dy="2" result="offsetblur"/>
      <feFlood flood-color="#000000"/>
      <feComposite in2="offsetblur" operator="in"/>
    </filter>
    <linearGradient id="Gradient_6" gradientUnits="userSpaceOnUse" x1="239.999" y1="176.231" x2="272.001" y2="208.233">
      <stop offset="0" stop-color="#FFFFFF"/>
      <stop offset="1" stop-color="#DBDBDB"/>
    </linearGradient>
    <clipPath id="Clip_11">
      <path d="M290.807,161.603 L348.065,161.603 L348.065,222.86 L290.807,222.86 z M334.065,169.603 L304.807,169.603 C300.388,169.603 296.807,173.184 296.807,177.603 L296.807,206.86 C296.807,211.279 300.388,214.86 304.807,214.86 L334.065,214.86 C338.483,214.86 342.065,211.279 342.065,206.86 L342.065,177.603 C342.065,173.184 338.483,169.603 334.065,169.603 z"/>
    </clipPath>
    <filter id="Shadow_12">
      <feGaussianBlur in="SourceAlpha" stdDeviation="2.5"/>
      <feOffset dx="0" dy="2" result="offsetblur"/>
      <feFlood flood-color="#000000"/>
      <feComposite in2="offsetblur" operator="in"/>
    </filter>
    <linearGradient id="Gradient_7" gradientUnits="userSpaceOnUse" x1="303.435" y1="176.231" x2="335.437" y2="208.233">
      <stop offset="0" stop-color="#FFFFFF"/>
      <stop offset="1" stop-color="#DBDBDB"/>
    </linearGradient>
    <clipPath id="Clip_13">
      <path d="M166.367,221.44 L223.625,221.44 L223.625,282.698 L166.367,282.698 z M209.625,229.44 L180.367,229.44 C175.949,229.44 172.367,233.022 172.367,237.44 L172.367,266.698 C172.367,271.116 175.949,274.698 180.367,274.698 L209.625,274.698 C214.043,274.698 217.625,271.116 217.625,266.698 L217.625,237.44 C217.625,233.022 214.043,229.44 209.625,229.44 z"/>
    </clipPath>
    <filter id="Shadow_14">
      <feGaussianBlur in="SourceAlpha" stdDeviation="2.5"/>
      <feOffset dx="0" dy="2" result="offsetblur"/>
      <feFlood flood-color="#000000"/>
      <feComposite in2="offsetblur" operator="in"/>
    </filter>
    <linearGradient id="Gradient_8" gradientUnits="userSpaceOnUse" x1="178.995" y1="236.068" x2="210.997" y2="268.07">
      <stop offset="0" stop-color="#FFFFFF"/>
      <stop offset="1" stop-color="#DBDBDB"/>
    </linearGradient>
    <clipPath id="Clip_15">
      <path d="M227.371,221.44 L284.629,221.44 L284.629,282.698 L227.371,282.698 z M270.629,229.44 L241.371,229.44 C236.953,229.44 233.371,233.022 233.371,237.44 L233.371,266.698 C233.371,271.116 236.953,274.698 241.371,274.698 L270.629,274.698 C275.047,274.698 278.629,271.116 278.629,266.698 L278.629,237.44 C278.629,233.022 275.047,229.44 270.629,229.44 z"/>
    </clipPath>
    <filter id="Shadow_16">
      <feGaussianBlur in="SourceAlpha" stdDeviation="2.5"/>
      <feOffset dx="0" dy="2" result="offsetblur"/>
      <feFlood flood-color="#000000"/>
      <feComposite in2="offsetblur" operator="in"/>
    </filter>
    <linearGradient id="Gradient_9" gradientUnits="userSpaceOnUse" x1="239.999" y1="236.068" x2="272.001" y2="268.07">
      <stop offset="0" stop-color="#FFFFFF"/>
      <stop offset="1" stop-color="#DBDBDB"/>
    </linearGradient>
  </defs>
  <g id="Layer_1" transform="translate(-143.767, -62.775)">
    <path d="M152.409,62.775 L359.591,62.775 C364.363,62.775 368.233,66.644 368.233,71.417 L368.233,440.583 C368.233,445.356 364.363,449.225 359.591,449.225 L152.409,449.225 C147.637,449.225 143.767,445.356 143.767,440.583 L143.767,71.417 C143.767,66.644 147.637,62.775 152.409,62.775 z" fill="url(#Gradient_1)"/>
    <path d="M152.409,62.775 L359.591,62.775 C364.363,62.775 368.233,66.644 368.233,71.417 L368.233,440.583 C368.233,445.356 364.363,449.225 359.591,449.225 L152.409,449.225 C147.637,449.225 143.767,445.356 143.767,440.583 L143.767,71.417 C143.767,66.644 147.637,62.775 152.409,62.775 z" fill="url(#Gradient_2)"/>
    <g>
      <path d="M209.625,110.282 C214.043,110.282 217.625,113.864 217.625,118.282 L217.625,147.54 C217.625,151.958 214.043,155.54 209.625,155.54 L180.367,155.54 C175.949,155.54 172.367,151.958 172.367,147.54 L172.367,118.282 C172.367,113.864 175.949,110.282 180.367,110.282 L209.625,110.282 z" clip-path="url(#Clip_1)" filter="url(#Shadow_2)" fill="rgba(0,0,0,0.385)"/>
      <path d="M180.367,110.282 L209.625,110.282 C214.043,110.282 217.625,113.864 217.625,118.282 L217.625,147.54 C217.625,151.958 214.043,155.54 209.625,155.54 L180.367,155.54 C175.949,155.54 172.367,151.958 172.367,147.54 L172.367,118.282 C172.367,113.864 175.949,110.282 180.367,110.282 z" fill="#58B8E8"/>
    </g>
    <g>
      <path d="M270.629,110.282 C275.047,110.282 278.629,113.864 278.629,118.282 L278.629,147.54 C278.629,151.958 275.047,155.54 270.629,155.54 L241.371,155.54 C236.953,155.54 233.371,151.958 233.371,147.54 L233.371,118.282 C233.371,113.864 236.953,110.282 241.371,110.282 L270.629,110.282 z" clip-path="url(#Clip_3)" filter="url(#Shadow_4)" fill="rgba(0,0,0,0.28)"/>
      <path d="M241.371,110.282 L270.629,110.282 C275.047,110.282 278.629,113.864 278.629,118.282 L278.629,147.54 C278.629,151.958 275.047,155.54 270.629,155.54 L241.371,155.54 C236.953,155.54 233.371,151.958 233.371,147.54 L233.371,118.282 C233.371,113.864 236.953,110.282 241.371,110.282 z" fill="url(#Gradient_3)"/>
    </g>
    <g>
      <path d="M334.065,110.282 C338.483,110.282 342.065,113.864 342.065,118.282 L342.065,147.54 C342.065,151.958 338.483,155.54 334.065,155.54 L304.807,155.54 C300.388,155.54 296.807,151.958 296.807,147.54 L296.807,118.282 C296.807,113.864 300.388,110.282 304.807,110.282 L334.065,110.282 z" clip-path="url(#Clip_5)" filter="url(#Shadow_6)" fill="rgba(0,0,0,0.28)"/>
      <path d="M304.807,110.282 L334.065,110.282 C338.483,110.282 342.065,113.864 342.065,118.282 L342.065,147.54 C342.065,151.958 338.483,155.54 334.065,155.54 L304.807,155.54 C300.388,155.54 296.807,151.958 296.807,147.54 L296.807,118.282 C296.807,113.864 300.388,110.282 304.807,110.282 z" fill="url(#Gradient_4)"/>
    </g>
    <g>
      <path d="M209.625,169.603 C214.043,169.603 217.625,173.184 217.625,177.603 L217.625,206.86 C217.625,211.279 214.043,214.86 209.625,214.86 L180.367,214.86 C175.949,214.86 172.367,211.279 172.367,206.86 L172.367,177.603 C172.367,173.184 175.949,169.603 180.367,169.603 L209.625,169.603 z" clip-path="url(#Clip_7)" filter="url(#Shadow_8)" fill="rgba(0,0,0,0.28)"/>
      <path d="M180.367,169.603 L209.625,169.603 C214.043,169.603 217.625,173.184 217.625,177.603 L217.625,206.86 C217.625,211.279 214.043,214.86 209.625,214.86 L180.367,214.86 C175.949,214.86 172.367,211.279 172.367,206.86 L172.367,177.603 C172.367,173.184 175.949,169.603 180.367,169.603 z" fill="url(#Gradient_5)"/>
    </g>
    <g>
      <path d="M270.629,169.603 C275.047,169.603 278.629,173.184 278.629,177.603 L278.629,206.86 C278.629,211.279 275.047,214.86 270.629,214.86 L241.371,214.86 C236.953,214.86 233.371,211.279 233.371,206.86 L233.371,177.603 C233.371,173.184 236.953,169.603 241.371,169.603 L270.629,169.603 z" clip-path="url(#Clip_9)" filter="url(#Shadow_10)" fill="rgba(0,0,0,0.28)"/>
      <path d="M241.371,169.603 L270.629,169.603 C275.047,169.603 278.629,173.184 278.629,177.603 L278.629,206.86 C278.629,211.279 275.047,214.86 270.629,214.86 L241.371,214.86 C236.953,214.86 233.371,211.279 233.371,206.86 L233.371,177.603 C233.371,173.184 236.953,169.603 241.371,169.603 z" fill="url(#Gradient_6)"/>
    </g>
    <g>
      <path d="M334.065,169.603 C338.483,169.603 342.065,173.184 342.065,177.603 L342.065,206.86 C342.065,211.279 338.483,214.86 334.065,214.86 L304.807,214.86 C300.388,214.86 296.807,211.279 296.807,206.86 L296.807,177.603 C296.807,173.184 300.388,169.603 304.807,169.603 L334.065,169.603 z" clip-path="url(#Clip_11)" filter="url(#Shadow_12)" fill="rgba(0,0,0,0.28)"/>
      <path d="M304.807,169.603 L334.065,169.603 C338.483,169.603 342.065,173.184 342.065,177.603 L342.065,206.86 C342.065,211.279 338.483,214.86 334.065,214.86 L304.807,214.86 C300.388,214.86 296.807,211.279 296.807,206.86 L296.807,177.603 C296.807,173.184 300.388,169.603 304.807,169.603 z" fill="url(#Gradient_7)"/>
    </g>
    <g>
      <path d="M209.625,229.44 C214.043,229.44 217.625,233.022 217.625,237.44 L217.625,266.698 C217.625,271.116 214.043,274.698 209.625,274.698 L180.367,274.698 C175.949,274.698 172.367,271.116 172.367,266.698 L172.367,237.44 C172.367,233.022 175.949,229.44 180.367,229.44 L209.625,229.44 z" clip-path="url(#Clip_13)" filter="url(#Shadow_14)" fill="rgba(0,0,0,0.28)"/>
      <path d="M180.367,229.44 L209.625,229.44 C214.043,229.44 217.625,233.022 217.625,237.44 L217.625,266.698 C217.625,271.116 214.043,274.698 209.625,274.698 L180.367,274.698 C175.949,274.698 172.367,271.116 172.367,266.698 L172.367,237.44 C172.367,233.022 175.949,229.44 180.367,229.44 z" fill="url(#Gradient_8)"/>
    </g>
    <g>
      <path d="M270.629,229.44 C275.047,229.44 278.629,233.022 278.629,237.44 L278.629,266.698 C278.629,271.116 275.047,274.698 270.629,274.698 L241.371,274.698 C236.953,274.698 233.371,271.116 233.371,266.698 L233.371,237.44 C233.371,233.022 236.953,229.44 241.371,229.44 L270.629,229.44 z" clip-path="url(#Clip_15)" filter="url(#Shadow_16)" fill="rgba(0,0,0,0.28)"/>
      <path d="M241.371,229.44 L270.629,229.44 C275.047,229.44 278.629,233.022 278.629,237.44 L278.629,266.698 C278.629,271.116 275.047,274.698 270.629,274.698 L241.371,274.698 C236.953,274.698 233.371,271.116 233.371,266.698 L233.371,237.44 C233.371,233.022 236.953,229.44 241.371,229.44 z" fill="url(#Gradient_9)"/>
    </g>
  </g>
</svg>
