<?xml version="1.0" encoding="UTF-8"?>
<!DOCTYPE svg PUBLIC "-//W3C//DTD SVG 1.1//EN" "http://www.w3.org/Graphics/SVG/1.1/DTD/svg11.dtd">
<svg version="1.1" xmlns="http://www.w3.org/2000/svg" xmlns:xlink="http://www.w3.org/1999/xlink" x="0" y="0" width="379.93" height="409.476" viewBox="0, 0, 379.93, 409.476">
  <defs>
    <linearGradient id="Gradient_1" gradientUnits="userSpaceOnUse" x1="121.886" y1="186.608" x2="390.537" y2="421.139">
      <stop offset="0" stop-color="#FFFFFF"/>
      <stop offset="1" stop-color="#DBDBDB"/>
    </linearGradient>
    <linearGradient id="Gradient_2" gradientUnits="userSpaceOnUse" x1="228.055" y1="71.676" x2="283.945" y2="126.917">
      <stop offset="0" stop-color="#FFFFFF"/>
      <stop offset="1" stop-color="#DBDBDB"/>
    </linearGradient>
    <linearGradient id="Gradient_3" gradientUnits="userSpaceOnUse" x1="121.886" y1="186.608" x2="409.627" y2="430.756">
      <stop offset="0" stop-color="#FFFFFF" stop-opacity="0"/>
      <stop offset="1" stop-color="#59B8E8"/>
    </linearGradient>
  </defs>
  <g id="Layer_1" transform="translate(-66.246, -60.236)">
    <path d="M425.614,138.035 C436.97,138.035 446.176,147.241 446.176,158.598 C446.019,168.631 439.092,176.734 429.355,178.72 C391.919,188.736 353.331,193.574 314.821,197.179 L314.821,447.512 C314.993,448.356 314.855,447.629 314.96,449.725 C314.96,460.718 306.049,469.629 295.056,469.629 C284.064,469.629 275.152,460.718 275.152,449.725 C275.259,447.614 275.119,448.356 275.301,447.466 L275.301,334.122 L236.699,334.122 L236.699,446.233 C237.131,448.35 236.97,447.189 237.098,449.725 C237.098,460.763 228.15,469.711 217.112,469.711 C208.458,469.551 200.61,464.05 198.024,455.668 C197.759,454.368 197.494,453.068 197.228,451.768 C197.228,451.767 197.228,451.766 197.228,451.764 L197.179,451.764 L197.179,450.784 L197.125,449.725 L197.179,448.666 L197.179,197.179 C158.228,193.547 119.19,188.62 81.356,178.371 C80.591,178.215 80.902,178.324 80.402,178.112 L79.536,177.878 L79.567,177.76 C71.319,174.691 66.68,167.179 66.246,158.598 C66.246,147.241 75.453,138.035 86.809,138.035 C89.568,138.025 91.875,138.516 94.411,139.588 C147.107,153.325 201.726,157.31 256,157.658 C310.665,157.61 365.626,153.007 418.677,139.307 C420.278,138.631 419.208,139.019 421.985,138.453 L422.354,138.357 L422.359,138.376 C424.199,138.001 423.12,138.161 425.614,138.035 z" fill="url(#Gradient_1)"/>
    <path d="M256,60.236 Q271.624,60.236 283.572,71.724 Q295.521,83.213 295.521,98.837 Q295.521,114.461 283.572,126.409 Q271.624,138.358 256,138.358 Q240.376,138.358 228.428,126.409 Q216.479,114.461 216.479,98.837 Q216.479,83.213 228.428,71.724 Q240.376,60.236 256,60.236 z" fill="url(#Gradient_2)"/>
    <path d="M425.614,138.035 C436.97,138.035 446.176,147.241 446.176,158.598 C446.019,168.631 439.092,176.734 429.355,178.72 C391.919,188.736 353.331,193.574 314.821,197.179 L314.821,447.512 C314.993,448.356 314.855,447.629 314.96,449.725 C314.96,460.718 306.049,469.629 295.056,469.629 C284.064,469.629 275.152,460.718 275.152,449.725 C275.259,447.614 275.119,448.356 275.301,447.466 L275.301,334.122 L236.699,334.122 L236.699,446.233 C237.131,448.35 236.97,447.189 237.098,449.725 C237.098,460.763 228.15,469.711 217.112,469.711 C208.458,469.551 200.61,464.05 198.024,455.668 C197.759,454.368 197.494,453.068 197.228,451.768 C197.228,451.767 197.228,451.766 197.228,451.764 L197.179,451.764 L197.179,450.784 L197.125,449.725 L197.179,448.666 L197.179,197.179 C158.228,193.547 119.19,188.62 81.356,178.371 C80.591,178.215 80.902,178.324 80.402,178.113 L79.536,177.878 L79.567,177.76 C71.319,174.691 66.68,167.179 66.246,158.598 C66.246,147.241 75.453,138.035 86.809,138.035 C89.568,138.025 91.875,138.516 94.411,139.588 C147.107,153.325 201.726,157.31 256,157.658 C310.665,157.61 365.626,153.007 418.677,139.307 C420.278,138.631 419.208,139.019 421.985,138.453 L422.354,138.357 L422.359,138.376 C424.199,138.001 423.12,138.161 425.614,138.035 z" fill="url(#Gradient_3)"/>
  </g>
</svg>
