<?xml version="1.0" encoding="UTF-8"?>
<!DOCTYPE svg PUBLIC "-//W3C//DTD SVG 1.1//EN" "http://www.w3.org/Graphics/SVG/1.1/DTD/svg11.dtd">
<svg version="1.1" xmlns="http://www.w3.org/2000/svg" xmlns:xlink="http://www.w3.org/1999/xlink" x="0" y="0" width="331.708" height="373.737" viewBox="0, 0, 331.708, 373.737">
  <defs>
    <radialGradient id="Gradient_1" gradientUnits="userSpaceOnUse" cx="38.167" cy="263.819" r="204.165" gradientTransform="matrix(0.866, -0.5, 0.5, 0.866, 0, 0)">
      <stop offset="0" stop-color="#FFFFFF"/>
      <stop offset="0" stop-color="#FFFFFF"/>
      <stop offset="1" stop-color="#DEDEDE"/>
    </radialGradient>
    <linearGradient id="Gradient_2" gradientUnits="userSpaceOnUse" x1="142.903" y1="240.805" x2="122.393" y2="360.675" gradientTransform="matrix(0.866, -0.5, 0.5, 0.866, 0, 0)">
      <stop offset="0" stop-color="#FFFFFF"/>
      <stop offset="0" stop-color="#FFFFFF" stop-opacity="0"/>
      <stop offset="1" stop-color="#59B8E8" stop-opacity="0.436"/>
    </linearGradient>
    <linearGradient id="Gradient_3" gradientUnits="userSpaceOnUse" x1="161.121" y1="332.574" x2="245.205" y2="338.847" gradientTransform="matrix(0.836, -0.548, 0.548, 0.836, 0, 0)">
      <stop offset="0" stop-color="#CBCBCB"/>
      <stop offset="1" stop-color="#59B8E8"/>
    </linearGradient>
    <linearGradient id="Gradient_4" gradientUnits="userSpaceOnUse" x1="137.691" y1="290.548" x2="213.784" y2="335.564">
      <stop offset="0" stop-color="#EFF1F3"/>
      <stop offset="1" stop-color="#59B8E8" stop-opacity="0.436"/>
    </linearGradient>
  </defs>
  <g id="Layer_1" transform="translate(-88.386, -71.235)">
    <path d="M286.338,76.162 C288.539,93.984 297.074,110.797 305.205,126.595 C314.66,144.966 325.36,162.643 336.603,179.965 C353.054,204.432 370.1,228.839 390.652,250.104 C397.426,257.114 405.402,265.884 415.065,268.748 L415.38,270.401 C406.808,268.48 410.866,269.334 403.213,267.806 C361.448,259.797 317.596,258.411 276.262,267.921 C247.991,274.303 221.251,286.42 198.537,304.436 C199.164,306.045 199.934,307.604 200.417,309.261 C205.832,327.846 202.842,344.71 191.84,360.518 L222.374,413.404 C225.994,419.675 223.846,427.693 217.575,431.313 L196.964,443.213 C190.693,446.834 182.675,444.685 179.054,438.415 L147.476,383.719 C126.227,384.62 106.994,372.963 96.081,355.117 C80.24,327.68 89.641,292.596 117.078,276.755 C120.571,274.706 124.305,273.125 128.166,271.927 C128.83,271.498 128.388,271.786 129.486,271.054 C131.781,269.514 134.421,267.652 137.379,265.46 C145.744,259.26 155.029,251.631 165,242.501 C193.349,216.543 221.645,183.721 248.017,143.469 C261.984,121.743 275.06,99.412 286.338,76.162 z" fill="url(#Gradient_1)"/>
    <path d="M415.38,270.401 C406.808,268.48 410.866,269.334 403.213,267.806 C361.448,259.797 317.596,258.411 276.262,267.921 C247.991,274.303 221.251,286.42 198.537,304.436 C199.164,306.045 199.934,307.604 200.417,309.261 C205.832,327.846 202.842,344.71 191.84,360.518 L222.374,413.404 C225.994,419.675 223.846,427.693 217.575,431.313 L196.964,443.213 C190.693,446.834 182.675,444.685 179.054,438.415 L147.476,383.719 C126.227,384.62 106.994,372.963 96.081,355.117 C80.24,327.68 89.641,292.596 117.078,276.755 C120.571,274.706 124.305,273.125 128.166,271.927 C128.83,271.498 128.388,271.786 129.486,271.054 C131.781,269.514 134.421,267.652 137.379,265.46 C145.744,259.26 155.029,251.631 165,242.501 C193.349,216.543 221.645,183.721 248.017,143.469 C262.96,120.197 276.913,96.268 288.728,71.235 z" fill="url(#Gradient_2)"/>
    <path d="M417.834,271.412 C408.294,277.663 371.292,238.065 335.188,182.967 C299.083,127.869 277.548,78.136 287.088,71.884 C296.627,65.633 333.629,105.232 369.734,160.33 C405.838,215.428 427.373,265.161 417.834,271.412 z" fill="url(#Gradient_3)"/>
    <path d="M145.306,382.9 C113.87,382.9 88.386,357.416 88.386,325.98 C88.386,294.544 113.87,269.06 145.306,269.06 C176.742,269.06 202.226,294.544 202.226,325.98 C202.226,357.416 176.742,382.9 145.306,382.9 z" fill="url(#Gradient_4)"/>
  </g>
</svg>
