<?xml version="1.0" encoding="UTF-8"?>
<!DOCTYPE svg PUBLIC "-//W3C//DTD SVG 1.1//EN" "http://www.w3.org/Graphics/SVG/1.1/DTD/svg11.dtd">
<svg version="1.1" xmlns="http://www.w3.org/2000/svg" xmlns:xlink="http://www.w3.org/1999/xlink" x="0" y="0" width="319.472" height="321.111" viewBox="0, 0, 319.472, 321.111">
  <defs>
    <clipPath id="Clip_1">
      <path d="M95.264,93.444 L416.736,93.444 L416.736,418.556 L95.264,418.556 z M391.736,120.444 L345.697,124.413 Q299.658,129.176 240.521,146.242 Q181.385,163.308 155.19,189.503 Q140.902,203.791 130.583,228.398 Q120.264,253.005 120.264,272.85 Q120.264,292.694 130.583,317.698 Q140.902,342.702 155.19,356.99 Q193.292,266.5 279.813,222.048 Q249.65,247.449 222.661,293.885 Q195.673,340.321 188.529,380.01 Q221.074,395.885 258.381,389.932 Q295.689,383.979 322.677,356.99 Q348.872,330.796 366.335,266.896 Q383.798,202.997 387.37,171.643 Q390.942,140.289 391.736,120.444 z"/>
    </clipPath>
    <filter id="Shadow_2">
      <feGaussianBlur in="SourceAlpha" stdDeviation="12"/>
      <feOffset dx="0" dy="2" result="offsetblur"/>
      <feFlood flood-color="#3D3D3D"/>
      <feComposite in2="offsetblur" operator="in"/>
    </filter>
    <radialGradient id="Gradient_1" gradientUnits="userSpaceOnUse" cx="162.712" cy="163.378" r="189.9">
      <stop offset="0" stop-color="#FFFFFF"/>
      <stop offset="1" stop-color="#DCDCDC"/>
    </radialGradient>
    <radialGradient id="Gradient_2" gradientUnits="userSpaceOnUse" cx="216.982" cy="205.413" r="233.767">
      <stop offset="0.299" stop-color="#FFFFFF" stop-opacity="0"/>
      <stop offset="1" stop-color="#00F771" stop-opacity="0.521"/>
    </radialGradient>
  </defs>
  <g id="Layer_1" transform="translate(-96.264, -96.444)">
    <g>
      <path d="M391.736,120.444 Q390.942,140.289 387.37,171.643 Q383.798,202.997 366.335,266.896 Q348.872,330.796 322.677,356.99 Q295.689,383.979 258.381,389.932 Q221.074,395.885 188.529,380.01 Q195.673,340.321 222.661,293.885 Q249.65,247.449 279.813,222.048 Q193.292,266.5 155.19,356.99 Q140.902,342.702 130.583,317.698 Q120.264,292.694 120.264,272.85 Q120.264,253.005 130.583,228.398 Q140.902,203.791 155.19,189.503 Q181.385,163.308 240.521,146.242 Q299.658,129.176 345.697,124.413 L391.736,120.444 z" clip-path="url(#Clip_1)" filter="url(#Shadow_2)" fill="rgba(0,0,0,0.319)"/>
      <path d="M155.19,189.503 Q181.385,163.308 240.521,146.242 Q299.658,129.176 345.697,124.413 L391.736,120.444 Q390.942,140.289 387.37,171.643 Q383.798,202.997 366.335,266.896 Q348.872,330.796 322.677,356.99 Q295.689,383.979 258.381,389.932 Q221.074,395.885 188.529,380.01 Q195.673,340.321 222.661,293.885 Q249.65,247.449 279.813,222.048 Q193.292,266.5 155.19,356.99 Q140.902,342.702 130.583,317.698 Q120.264,292.694 120.264,272.85 Q120.264,253.005 130.583,228.398 Q140.902,203.791 155.19,189.503 z" fill="url(#Gradient_1)"/>
    </g>
    <path d="M154.454,188.948 Q180.649,162.753 239.785,145.687 Q298.922,128.62 344.961,123.858 L391,119.889 Q390.206,139.733 386.634,171.088 Q383.062,202.442 365.599,266.341 Q348.136,330.24 321.941,356.435 Q294.953,383.423 257.645,389.376 Q220.338,395.33 187.793,379.454 Q194.937,339.765 221.925,293.329 Q248.914,246.893 279.077,221.492 Q192.556,265.944 154.454,356.435 Q140.166,342.147 129.847,317.143 Q119.528,292.139 119.528,272.294 Q119.528,252.45 129.847,227.843 Q140.166,203.236 154.454,188.948 z" fill="url(#Gradient_2)"/>
  </g>
</svg>
