<?xml version="1.0" encoding="UTF-8"?>
<!DOCTYPE svg PUBLIC "-//W3C//DTD SVG 1.1//EN" "http://www.w3.org/Graphics/SVG/1.1/DTD/svg11.dtd">
<svg version="1.1" xmlns="http://www.w3.org/2000/svg" xmlns:xlink="http://www.w3.org/1999/xlink" x="0" y="0" width="165.762" height="47.694" viewBox="0, 0, 165.762, 47.694">
  <g id="Layer_1" transform="translate(-8.764, -73.208)">
    <path d="M28.688,115.225 C17.589,114.654 8.764,105.472 8.764,94.231 C8.764,82.62 18.176,73.208 29.787,73.208 C34.866,73.208 39.525,75.009 43.159,78.008 L37.712,87.524 C35.808,85.276 32.964,83.849 29.787,83.849 C24.053,83.849 19.405,88.497 19.405,94.231 C19.405,99.964 24.053,104.612 29.787,104.612 C31.613,104.612 33.329,104.141 34.819,103.313 L34.819,95.577 L46.304,93.129 L46.304,118.456 L34.803,120.902 L34.803,104.753 L28.688,115.225" fill="#FFFFFF"/>
    <path d="M71.508,73.208 C83.118,73.208 92.531,82.62 92.531,94.231 C92.531,105.841 83.118,115.253 71.508,115.253 C59.897,115.253 50.485,105.841 50.485,94.231 C50.485,82.62 59.897,73.208 71.508,73.208 z M71.508,83.849 C65.774,83.849 61.126,88.497 61.126,94.231 C61.126,99.964 65.774,104.612 71.508,104.612 C77.241,104.612 81.889,99.964 81.889,94.231 C81.889,88.497 77.241,83.849 71.508,83.849 z" fill="#FFFFFF"/>
    <path d="M120.912,74.165 L120.912,87.93 C120.912,91.632 117.91,94.634 114.207,94.634 C110.505,94.634 107.502,91.632 107.502,87.93 L107.478,74.165 L96.775,74.165 L96.775,87.93 C96.775,95.719 101.884,102.315 108.933,104.55 L108.933,114.173 L119.591,114.173 L119.593,104.514 C126.585,102.245 131.64,95.678 131.64,87.93 L131.581,74.165 L120.912,74.165" fill="#FFFFFF"/>
    <path d="M155.623,73.615 C166.062,73.615 174.526,82.078 174.526,92.518 L174.525,114.173 L163.881,114.173 L163.881,107.199 L147.364,107.199 L147.364,114.173 L136.719,114.173 L136.719,92.518 C136.719,82.078 145.183,73.615 155.623,73.615 z M155.623,84.256 C151.06,84.256 147.361,87.955 147.361,92.518 L147.364,96.433 L163.885,96.433 L163.885,92.518 C163.885,87.955 160.185,84.256 155.623,84.256 z" fill="#FFFFFF"/>
  </g>
</svg>
