<?xml version="1.0" encoding="UTF-8"?>
<!DOCTYPE svg PUBLIC "-//W3C//DTD SVG 1.1//EN" "http://www.w3.org/Graphics/SVG/1.1/DTD/svg11.dtd">
<svg version="1.1" xmlns="http://www.w3.org/2000/svg" xmlns:xlink="http://www.w3.org/1999/xlink" x="0" y="0" width="512" height="512" viewBox="0, 0, 512, 512">
  <g id="g15902">
    <path d="M136.256,353.597 C135.353,354.691 134.844,355.912 134.844,358.04 L134.844,416.496 L134.518,416.496 C134.518,416.496 102.523,359.456 100.977,356.819 C99.883,354.948 98.658,353.662 97.051,352.697 C95.439,351.798 93.767,351.22 90.548,351.22 L79.993,351.22 C77.544,351.22 76.001,352.058 74.907,353.344 C74.004,354.435 73.487,355.663 73.487,357.784 L73.487,440.641 C73.487,442.766 74.004,443.994 74.907,445.085 C76.001,446.375 77.544,447.209 79.993,447.209 L85.979,447.209 C88.424,447.209 89.97,446.375 91.065,445.085 C91.964,443.99 92.477,442.766 92.477,440.641 L92.477,380.77 L92.803,380.77 C92.803,380.77 126.018,439.612 127.373,441.801 C129.241,444.89 132.391,447.205 136.899,447.205 L147.137,447.205 C149.582,447.205 151.128,446.371 152.223,445.081 C153.122,443.986 153.639,442.762 153.639,440.638 L153.639,365.893 L288.125,365.893 C289.48,365.893 290.505,365.511 291.282,364.868 C292.117,364.091 292.507,363.061 292.507,361.519 L292.507,355.855 C292.507,354.309 292.12,353.279 291.282,352.506 C290.505,351.863 289.48,351.476 288.125,351.476 L141.342,351.476 C138.897,351.473 137.351,352.311 136.256,353.597 M194.968,375.741 C172.625,375.741 160.072,393.192 160.072,411.605 C160.072,431.238 173.532,448.499 195.095,448.499 C205.849,448.499 216.404,444.442 222.455,437.293 C225.096,434.204 227.223,429.891 227.223,427.254 C227.223,426.351 227.028,425.582 226.519,425 C226.003,424.353 225.226,423.97 223.875,423.97 L213.511,423.97 C211.444,423.97 210.036,424.74 209.002,426.286 C205.979,430.733 201.601,433.048 195.163,433.048 C185.504,433.048 179.265,425.708 178.814,417.659 L223.626,417.659 C225.616,417.659 227.032,417.208 228,416.247 C229.095,415.218 229.612,413.733 229.612,410.966 C229.612,402.534 226.971,393.782 221.437,387.08 C215.765,380.314 207.139,375.741 194.968,375.741 M264.045,375.741 C246.409,375.741 234.82,384.111 234.82,397.502 C234.82,402.267 236.558,406.132 239.394,409.152 C242.678,412.699 247.373,415.145 254.201,416.882 L268.939,420.61 C272.992,421.64 276.601,422.864 276.601,426.408 C276.601,431.881 270.807,433.745 264.626,433.745 C261.599,433.745 258.445,433.167 255.87,431.881 C254.067,430.974 252.525,429.692 251.43,427.954 C250.466,426.473 250.144,425.379 248.663,424.541 C247.76,424.028 246.662,423.963 245.188,423.963 L237.205,423.963 C235.467,423.963 234.633,424.483 234.051,425.187 C233.473,425.895 233.274,426.925 233.274,427.958 C233.274,430.53 234.177,433.753 236.305,436.646 C241.193,443.209 251.43,448.495 264.5,448.495 C277.378,448.495 295.213,443.148 295.213,425.892 C295.213,421.452 293.919,417.652 291.543,414.563 C288.515,410.637 284.202,407.935 276.862,406.067 L262.25,402.328 C256.195,400.785 253.363,399.687 253.363,395.956 C253.363,392.35 256.585,389.453 264.048,389.453 C268.427,389.453 272.418,390.422 275.002,393.124 C277.122,395.378 276.735,396.537 278.412,397.437 C279.441,397.953 280.597,397.953 282.407,397.953 L289.679,397.953 C290.838,397.953 291.677,397.762 292.316,397.05 C292.836,396.476 293.158,395.573 293.158,394.088 C293.158,390.739 290.965,386.43 287.111,383.142 C281.948,378.703 273.834,375.741 264.045,375.741 M304.157,378.19 L300.552,378.19 C299.201,378.19 298.171,378.573 297.402,379.216 C296.564,379.993 296.177,381.022 296.177,382.564 L296.177,387.008 C296.177,388.554 296.564,389.58 297.402,390.357 C298.175,391.003 299.205,391.39 300.552,391.39 L304.157,391.39 L304.157,423.511 C304.157,431.751 306.407,436.902 310.594,441.028 C314.456,444.824 319.481,447.205 328.233,447.205 L333.706,447.205 C335.061,447.205 336.087,446.822 336.864,446.179 C337.698,445.402 338.215,444.373 338.215,442.831 L338.215,437.228 C338.215,435.681 337.698,434.656 336.864,433.879 C336.087,433.236 335.061,432.849 333.706,432.849 L332.933,432.849 C329.458,432.849 327.078,431.95 325.466,430.404 C323.538,428.601 322.569,425.834 322.569,422.229 L322.569,391.394 L334.288,391.394 C335.639,391.394 336.669,391.007 337.442,390.36 C338.276,389.587 338.662,388.558 338.662,387.012 L338.662,382.568 C338.662,381.026 338.276,379.996 337.442,379.219 C336.669,378.577 335.639,378.194 334.288,378.194 L322.631,378.194 L322.631,357.206 C322.631,355.529 322.114,354.309 321.345,353.344 C320.376,352.185 319.029,351.476 317.035,351.476 L309.756,351.476 C307.758,351.476 306.407,352.188 305.439,353.344 C304.666,354.309 304.153,355.529 304.153,357.206 L304.157,378.19 L304.157,378.19 z M343.557,441.472 C343.557,443.148 344.07,444.373 344.847,445.337 C345.808,446.497 347.163,447.205 349.156,447.205 L356.815,447.205 C358.816,447.205 360.163,446.497 361.132,445.337 C361.905,444.369 362.421,443.148 362.421,441.472 L362.421,357.206 C362.421,355.533 361.905,354.309 361.132,353.34 C360.163,352.181 358.816,351.473 356.815,351.473 L349.156,351.473 C347.163,351.473 345.808,352.185 344.847,353.34 C344.07,354.309 343.557,355.529 343.557,357.206 L343.557,441.472 z M178.936,403.939 C179.771,396.017 185.825,390.096 195.033,390.096 C204.046,390.096 210.288,396.017 211.13,403.939 L178.936,403.939 z M432.141,365.893 C433.492,365.893 434.521,365.511 435.294,364.868 C436.132,364.091 436.519,363.061 436.519,361.519 L436.519,355.529 C436.519,353.21 436.067,352.054 435.294,351.216 C434.586,350.439 433.43,349.995 432.141,349.995 C431.111,349.995 430.082,350.122 428.344,350.313 L376.968,355.399 C375.491,355.526 374.783,355.977 374.266,356.559 C373.689,357.202 373.428,358.04 373.428,359.2 L373.428,362.545 C373.428,363.834 373.689,364.416 374.14,364.929 C374.714,365.572 375.552,365.893 376.712,365.893 L432.141,365.893 L432.141,365.893 z M403.747,375.741 C381.412,375.741 368.855,393.192 368.855,411.605 C368.855,431.238 382.311,448.499 403.877,448.499 C414.628,448.499 425.187,444.442 431.234,437.293 C433.878,434.204 436.002,429.891 436.002,427.254 C436.002,426.351 435.803,425.582 435.29,425 C434.781,424.353 434.004,423.97 432.653,423.97 L422.29,423.97 C420.227,423.97 418.814,424.74 417.781,426.286 C414.754,430.733 410.379,433.048 403.942,433.048 C394.282,433.048 388.037,425.708 387.589,417.659 L432.527,417.659 C434.521,417.659 435.937,417.208 436.902,416.247 C438,415.218 438.513,413.733 438.513,410.966 C438.513,402.534 435.872,393.782 430.338,387.08 C424.674,380.314 415.917,375.741 403.747,375.741 M387.719,403.939 C388.561,396.017 394.608,390.096 403.812,390.096 C412.829,390.096 419.067,396.017 419.909,403.939 L387.719,403.939 z" fill="#FFFFFF" id="path15912"/>
    <g>
      <path d="M374.635,151.407 C350.519,115.427 329.322,103.308 323.357,97.603 C316.81,91.311 311.82,84.183 308.641,80.749 C301.579,73.034 292.434,63.501 277.391,63.501 C262.874,63.501 253.281,72.962 250.163,81.137 C249.26,83.469 248.545,86.321 247.903,87.357 C246.479,89.694 240.06,100.65 237.396,104.992 L249.393,104.992 L243.555,116.014 C250.362,114.519 255.22,113.422 261.705,113.422 C267.471,113.422 271.62,114.79 273.436,118.412 C276.815,125.164 276.815,145.574 282.514,160.944 C287.826,175.389 300.798,189.524 315.381,200.353 C315.57,200.48 315.769,200.541 316.029,200.541 C316.738,200.541 317.198,200.026 317.198,199.505 C317.198,199.117 317.065,198.863 316.744,198.536 C304.559,186.345 294.639,172.864 289.327,158.092 C284.071,143.697 284.913,123.469 280.316,114.458 C277.264,108.493 270.789,106.947 264.824,106.947 C260.033,106.947 255.552,107.917 253.48,108.365 L258.726,99.487 L249.847,99.487 C251.73,96.186 253.669,93.134 254.644,91.317 C255.48,89.761 255.812,87.816 256.848,85.163 C260.216,76.667 267.671,71.283 277.391,71.283 C289.582,71.283 296.71,79.126 303.778,86.969 C307.018,90.602 312.335,98.185 318.494,103.823 C322.704,107.712 330.746,112.06 343.125,124.832 C350.253,132.221 358.55,141.814 367.301,154.647 C398.617,200.474 419.161,240.857 430.637,272.367 L430.443,272.5 C397.582,250.201 369.113,229.132 346.171,203.139 C329.898,184.661 315.769,163.271 303.445,135.976 C302.598,134.159 301.895,132.475 301.114,130.725 C300.792,130.011 300.466,129.817 299.945,129.817 C299.297,129.817 298.843,130.271 298.843,130.919 C298.843,131.633 299.169,133.19 299.878,136.303 C306.431,164.567 324.581,189.912 343.961,210.981 C363.28,231.923 385.12,249.946 403.076,263.04 L417.084,303.102 C417.405,304.076 417.793,305.112 417.793,306.081 C417.793,306.796 417.599,307.378 417.145,307.765 C416.757,308.153 416.242,308.352 415.073,308.352 L410.864,308.352 C409.047,308.352 408.327,308.092 407.679,307.571 C407.031,307.051 406.582,306.27 406.255,305.367 C405.026,301.601 397.632,280.531 396.214,276.255 C395.948,275.48 395.494,275.22 394.978,275.22 C394.33,275.22 393.876,275.74 393.876,276.322 C393.876,276.842 394.065,277.424 394.397,279.241 C396.269,288.834 398.479,299.596 399.382,303.683 C399.775,305.561 400.224,307.317 400.224,308.607 C400.224,309.77 399.969,310.424 399,311.393 L394.652,315.802 C393.616,316.838 393.023,317.098 392.187,317.098 C391.151,317.098 390.304,316.389 389.916,314.567 C384.992,291.548 377.537,263.034 375.587,255.12 C375.133,253.38 374.806,252.4 373.771,252.4 C372.868,252.4 372.547,253.054 372.547,253.829 C372.547,254.411 372.674,255.125 372.735,255.646 C373.904,263.81 378.639,293.564 383.757,320.726 C384.665,325.395 386.416,327.982 390.437,327.982 C392.253,327.982 393.998,327.267 395.621,325.716 C398.28,323.058 399.055,322.349 402.24,319.236 C404.505,317.026 406.061,316.129 409.955,316.129 L419.548,316.129 C421.819,316.129 423.049,315.547 424.151,314.5 C425.192,313.526 425.835,312.169 425.835,310.219 C425.835,308.214 425.32,306.597 424.605,304.58 C422.146,297.973 414.237,275.602 411.899,269.315 L412.093,269.188 C420.196,275.341 431.994,283.19 437.184,283.19 C438.801,283.19 439.776,282.475 439.776,279.944 C439.787,268.036 419.947,218.957 374.635,151.407" fill="#FFFFFF" id="path15916"/>
      <path d="M152.089,76.078 C153.451,73.093 156.431,71.021 159.998,71.021 C164.856,71.021 168.744,74.788 168.744,79.778 C168.744,82.692 167.387,85.228 165.243,86.779 C165.698,88.468 166.024,89.958 166.024,91.382 C166.024,96.826 162.784,100.654 156.824,102.664 C156.044,105.965 154.62,108.951 152.283,111.155 C148.395,114.91 144.44,114.91 144.44,116.472 C144.44,117.314 145.027,117.829 146.644,117.829 C153.839,117.829 160.907,113.814 161.748,107.134 C168.622,104.802 172.765,97.862 172.765,92.357 C172.765,90.928 172.632,89.698 172.056,88.535 C173.939,86.713 176.144,83.605 176.144,79.003 C176.144,74.982 174.388,70.9 171.275,67.914 C168.556,65.256 164.723,63.505 160.259,63.505 C153.773,63.505 149.563,67.011 147.165,70.445 C140.092,70.445 130.953,78.288 130.953,89.504 L129.984,89.504 C129.33,85.616 125.315,83.013 121.942,82.824 C119.222,74.66 113.063,67.659 102.944,67.659 C101.781,67.659 100.357,67.726 99.122,67.914 C96.142,65.189 92.835,63.505 88.233,63.505 C79.415,63.505 72.215,70.578 72.215,79.518 C72.215,85.095 74.746,88.923 79.543,92.296 C79.543,92.296 79.476,93.01 79.476,93.331 C79.476,100.46 87.252,111.615 98.79,111.615 C98.79,113.426 101.061,115.891 103.592,116.339 L103.592,117.248 L102.622,117.248 C86.743,117.248 80.002,124.902 80.002,130.014 C75.267,131.964 72.215,137.209 72.215,142.072 C72.215,151.732 79.288,158.605 88.621,158.605 C91.733,158.605 94.907,157.376 97.111,155.687 C98.729,156.268 100.806,156.589 102.938,156.589 C107.413,156.589 112.409,155.038 115.904,149.915 C116.425,149.982 116.874,149.982 117.394,149.982 C123.099,149.982 128.029,146.221 130.621,141.297 C131.269,140.067 131.524,139.098 131.524,138.378 C131.524,137.675 131.197,137.082 130.488,137.082 C129.585,137.082 129.452,137.929 127.829,139.419 C124.201,142.726 118.618,143.955 112.919,143.955 C110.133,148.043 106.699,150.181 102.744,150.181 C99.825,150.181 97.56,149.4 95.223,147.844 C93.34,149.915 91.013,150.763 88.737,150.763 C83.619,150.763 79.991,147.196 79.991,142.006 C79.991,138.372 82.323,135.138 85.563,133.903 C86.145,127.483 93.018,123.141 101.57,123.141 C102.672,123.141 103.774,123.207 104.943,123.34 C106.239,121.269 109.346,119.059 113.755,118.472 C114.664,118.344 115.373,118.278 115.893,118.023 C116.414,117.763 116.674,117.242 116.674,116.661 C116.674,116.145 116.475,115.691 115.96,115.365 C115.506,115.11 114.73,114.982 113.822,114.783 C109.734,114.002 104.871,111.476 102.412,105.317 C92.619,105.317 85.425,97.474 85.425,88.662 L85.425,88.081 C82.184,86.779 79.986,83.666 79.986,79.972 C79.986,75.115 83.802,71.226 88.665,71.226 C91.584,71.226 94.115,72.65 95.738,74.793 C97.095,74.406 98.646,74.273 100.141,74.273 C107.402,74.273 115.179,78.875 116.674,87.82 C126.013,88.668 128.211,96.577 128.798,99.884 C129.12,101.568 129.38,102.991 130.482,102.991 C131.651,102.991 131.906,101.689 132.299,99.939 C133.008,96.638 134.249,93.979 136.708,91.902 C136.724,83.4 143.077,76.078 152.089,76.078" fill="#FFFFFF" id="path15920"/>
      <path d="M170.948,126.899 C167.902,131.242 165.698,133.38 158.763,141.549 C149.624,152.378 144.828,161.134 136.846,180.575 C138.148,180.442 140.031,180.321 142.103,180.321 C143.138,180.321 143.975,180.321 145.343,180.381 L146.312,178.31 C150.787,168.717 156.808,155.751 165.238,145.764 L168.157,142.33 C176.836,132.156 182.22,126.124 185.593,112.249 C186.761,107.326 187.731,102.917 191.037,99.737 C194.017,96.885 197.778,95.655 201.605,95.655 C204.845,95.655 207.249,96.436 210.75,97.921 C213.929,99.278 215.086,99.544 218.46,99.544 C219.628,99.544 220.465,99.477 221.246,99.411 L216.709,105.503 L222.868,109.846 C215.147,112.111 211.065,119.572 209.703,123.006 C209.448,123.72 209.321,124.174 209.321,124.629 C209.321,125.149 209.575,125.664 210.356,125.664 C211.193,125.664 211.841,125.016 212.943,123.72 C216.704,119.184 219.689,116.066 233.558,111.729 L223.771,104.335 L231.16,93.517 L224.225,93.517 C219.817,93.517 216.898,93.451 213.076,91.701 C207.886,89.302 205.233,88.267 200.63,88.267 C194.992,88.267 189.869,90.272 185.659,94.166 C180.791,98.635 179.295,104.6 177.556,111.153 C176.199,116.204 174.582,121.787 170.948,126.899" fill="#FFFFFF" id="path15924"/>
      <path d="M185.86,171.051 C182.165,176.041 177.103,182.583 173.215,189.523 C174.45,190.11 178.537,192.314 179.966,193.084 C184.436,186.343 190.662,178.052 194.738,171.76 C198.438,166.055 199.928,163.59 200.183,155.941 C200.255,154.651 200.255,153.41 200.377,152.186 C200.698,148.231 201.745,144.21 205.5,140.521 C208.286,137.73 212.307,136.306 216.328,136.306 C220.216,136.306 222.476,137.403 225.849,137.403 C228.248,137.403 229.998,136.822 231.554,136.24 L232.784,135.786 L229.798,142.925 L236.794,145.772 C232.324,148.558 222.532,160.555 222.532,174.751 C222.532,179.874 223.313,184.604 224.415,188.814 C224.548,189.268 224.802,189.722 225.517,189.722 C226.165,189.722 226.619,189.334 226.686,188.62 L226.752,187.13 C226.946,182.788 227.267,175.919 229.017,169.755 C231.936,159.386 239.779,149.66 247.622,144.991 L236.473,140.134 L241.269,128.403 L236.018,129.505 C232.845,130.153 230.507,130.734 227.721,130.734 C225.905,130.734 223.833,130.48 221.368,129.893 C219.485,129.444 217.469,129.056 214.628,129.056 C209.505,129.056 203.988,130.995 200.233,134.628 C193.359,141.181 192.971,148.242 192.512,154.534 C191.958,162.881 190.396,164.953 185.86,171.051" fill="#FFFFFF" id="path15928"/>
      <path d="M352.207,174.999 C351.753,174.417 351.365,174.151 350.85,174.151 C350.069,174.151 349.681,174.672 349.681,175.254 C349.681,176.168 350.329,177.27 351.946,179.995 C356.87,188.353 362.969,196.777 370.49,204.698 C378.593,213.31 388.12,221.347 398.295,228.542 L401.474,230.752 C401.928,231.084 402.255,231.272 402.642,231.272 C403.29,231.272 403.745,230.624 403.745,230.104 C403.745,229.783 403.612,229.45 403.224,229.129 C393.764,220.516 383.584,210.009 374.057,199.901 C366.591,191.925 358.942,183.495 352.207,174.999" fill="#FFFFFF" id="path15932"/>
      <path d="M143.596,145.635 C144.565,144.018 147.484,140.063 148.653,138.828 C143.662,128.72 135.493,119.06 131.926,115.228 L128.94,118.147 C132.385,123.143 138.146,132.802 143.596,145.635" fill="#FFFFFF" id="path15936"/>
      <path d="M96.08,87.097 C95.492,86.576 95.365,86.25 95.365,85.862 C95.365,85.413 95.692,84.893 96.401,84.893 C96.661,84.893 96.916,84.959 97.248,85.092 C102.045,87.031 106.132,89.307 109.76,92.093 C112.801,94.425 115.786,97.283 118.7,100.717 L115.98,103.824 C112.613,101.032 101.712,91.899 96.08,87.097" fill="#FFFFFF" id="path15940"/>
      <path d="M142.036,108.815 L138.536,106.677 C140.801,101.299 143.598,96.369 146.899,92.669 C149.236,90.016 151.441,87.873 153.906,85.741 C154.487,85.286 154.808,84.893 155.39,84.893 C156.044,84.893 156.498,85.414 156.498,85.929 C156.498,86.184 156.365,86.51 156.104,86.898 C152.155,93.063 144.434,105.254 142.036,108.815" fill="#FFFFFF" id="path15944"/>
      <path d="M98.087,138.894 C97.245,139.215 96.858,139.414 96.404,139.414 C95.695,139.414 95.357,138.827 95.357,138.373 C95.357,137.924 95.556,137.664 96.01,137.271 C103.981,131.051 110.982,128.586 120.641,126.963 L121.804,130.857 L98.087,138.894 z" fill="#FFFFFF" id="path15948"/>
      <path d="M264.367,88.592 C264.367,86.322 265.535,82.234 269.75,82.234 C271.174,82.234 272.536,82.555 273.639,83.081 C275.195,83.796 276.231,84.832 276.231,85.934 C276.231,87.103 275.062,88.271 273.312,89.7 C271.495,91.185 269.163,92.553 267.286,92.553 C265.015,92.547 264.367,90.404 264.367,88.592" fill="#FFFFFF" id="path15952"/>
      <path d="M198.568,107.523 C198.568,104.737 200.252,101.685 203.492,101.685 C204.916,101.685 206.599,102.266 207.835,103.441 C208.544,104.089 208.87,104.792 208.87,105.512 C208.87,107.069 207.375,108.553 205.63,109.589 C204.268,110.37 202.844,110.89 201.615,110.89 C199.604,110.896 198.568,109.655 198.568,107.523" fill="#FFFFFF" id="path15956"/>
      <path d="M213.802,147.518 C213.802,146.87 213.869,146.095 214.123,145.314 C214.644,143.63 215.741,142.007 218.466,142.007 C219.701,142.007 221.052,142.328 222.154,143.115 C223.135,143.763 223.523,144.599 223.523,145.446 C223.523,148.232 218.853,151.473 216.516,151.473 C214.838,151.473 213.802,149.85 213.802,147.518" fill="#FFFFFF" id="path15960"/>
      <path d="M188.26,229.323 C179.509,229.323 175.615,225.18 175.615,219.929 C175.615,210.718 191.755,201.712 206.272,196.135 L210.038,200.998 C201.093,204.554 183.076,212.219 183.076,218.821 C183.076,221.153 184.433,222.837 189.872,222.837 C199.343,222.837 209.523,218.229 218.917,213.626 C219.632,213.299 220.473,212.978 221.254,212.978 C222.478,212.978 223.259,213.371 224.168,214.662 L225.724,216.8 C214.774,222.848 201.093,229.323 188.26,229.323" fill="#FFFFFF" id="path15964"/>
      <path d="M212.379,231.79 C203.822,236.587 194.943,239.766 187.095,239.766 C178.338,239.766 170.562,236 164.081,226.213 C161.362,222.07 159.218,216.886 156.626,212.277 C153.513,206.833 150.146,203.914 144.247,203.914 C138.863,203.914 133.607,206.118 128.035,208.517 L128.29,209.746 C128.744,211.751 129.525,213.18 131.403,213.18 C132.25,213.18 133.092,212.798 133.546,212.665 C136.659,211.69 138.924,210.843 142.104,210.843 C146.967,210.843 149.293,213.701 152.605,220.696 L153.835,223.294 C150.462,224.463 142.552,225.039 136.654,225.039 L133.873,225.039 L134.327,227.825 C134.521,228.993 134.975,229.968 135.945,230.428 C137.108,231.004 138.797,231.07 141.716,231.07 C149.105,231.07 154.483,230.168 157.595,229.381 C165.571,241.251 176.527,245.792 187.095,245.792 C196.101,245.792 205.245,242.48 214.002,237.689 L212.379,231.79 z" fill="#FFFFFF" id="path15968"/>
      <path d="M221.191,234.708 L219.64,228.737 C232.994,221.548 245.18,215.777 264.632,213.899 C265.019,221.354 264.499,230.754 270.015,230.754 C275.067,230.754 286.083,217.721 298.794,201.387 C299.963,202.489 301.835,203.658 303.525,204.954 L300.284,209.169 C287.9,225.121 277.332,238.735 268.647,238.735 C260.544,238.735 257.492,229.203 257.37,222.069 C244.986,223.304 233.31,227.447 221.191,234.708" fill="#FFFFFF" id="path15972"/>
      <path d="M392.721,104.604 C387.664,104.604 386.235,101.813 386.235,97.864 C386.235,89.694 391.358,77.963 394.599,71.283 L386.75,71.283 C382.674,79.193 366.595,104.538 357.904,115.045 L362.895,120.417 C367.564,115.233 372.687,106.421 378.259,97.731 L379.295,97.731 C379.295,98.185 379.234,98.7 379.234,99.154 C379.234,106.482 382.989,111.927 392.261,111.927 C397.966,111.927 406.911,109.074 415.347,106.222 C422.342,103.823 428.761,101.364 431.941,100.456 L431.941,92.679 C428.307,93.776 420.919,96.629 413.27,99.287 C405.233,102.073 397.324,104.604 392.721,104.604" fill="#FFFFFF" id="path15976"/>
      <path d="M410.026,128.132 C417.808,124.831 431.743,119.254 439.785,116.335 L439.785,108.426 C423.64,114.396 395.309,126.127 375.996,136.634 C376.516,137.271 379.889,142.007 380.272,142.594 C388.436,139.221 395.769,137.017 402.377,137.017 C411.654,137.017 419.231,137.017 431.942,134.031 L431.942,128.066 C424.814,129.368 417.226,130.918 412.302,130.918 C409.383,130.918 408.541,130.531 408.541,129.556 C408.536,128.98 408.923,128.592 410.026,128.132" fill="#FFFFFF" id="path15980"/>
      <path d="M243.946,164.566 L240.833,170.537 L273.966,170.537 L271.501,164.566 L243.946,164.566 z" fill="#FFFFFF" id="path15984"/>
      <path d="M124.604,200.155 C128.104,200.155 130.957,198.986 133.682,197.895 C136.269,196.848 138.866,195.812 142.367,195.812 C150.669,195.812 160.905,199.828 169.922,203.661 C170.443,203.855 171.024,203.982 171.606,203.982 C173.04,203.982 174.142,203.334 174.846,201.977 L176.015,199.839 C166.095,194.068 150.282,187.909 142.045,187.909 C138.29,187.909 135.56,188.883 132.973,189.919 C130.06,191.093 127.528,192.323 124.87,192.323 C118.323,192.323 101.535,185.837 101.535,179.551 C101.535,172.162 128.243,169.31 131.156,169.31 L133.809,163.278 C114.435,163.278 91.349,170.085 91.349,179.097 C91.349,181.689 92.839,182.985 92.839,185.383 C92.839,188.623 91.349,190.828 91.349,194.461 C91.349,196.859 92.773,199.906 94.457,202.57 C96.273,205.356 98.411,207.167 98.411,209.499 C98.411,211.249 97.248,213.326 97.248,217.413 C97.248,226.159 102.239,231.482 111.959,241.917 L113.909,243.988 C105.872,247.107 90.89,253.587 87.389,255.077 C75.265,260.134 72.224,266.287 72.224,276.019 C72.224,279.78 72.224,284.056 72.484,287.877 L74.816,287.877 C79.679,287.877 80.266,284.964 80.266,282.178 C80.266,280.295 80.194,278.162 80.194,275.825 C80.266,270.447 80.46,265.65 89.145,261.762 C92.651,260.206 109.821,253.205 122.599,247.755 C126.354,246.132 129.855,244.769 133.743,244.769 C138.085,244.769 143.081,246.652 149.307,250.347 C154.557,253.46 160.069,257.669 164.411,262.532 L169.916,258.317 C165.181,252.745 158.64,247.755 152.093,243.866 C145.54,239.978 139.714,237.707 134.79,237.707 C132.652,237.707 130.896,238.101 129.406,238.488 C127.656,238.948 126.033,239.458 123.962,239.458 C121.563,239.458 119.547,238.876 116.634,235.509 C115.532,234.279 108.531,226.303 107.041,223.971 C106.332,222.869 105.036,220.665 105.036,218.073 C105.036,216.97 105.224,215.674 105.878,214.506 C111.904,219.175 119.364,222.027 128.431,223.129 L127.207,216.97 C114.175,213.536 100.3,202.06 100.3,194.671 C100.3,193.115 100.688,192.013 101.28,190.65 C106.321,195.297 118.185,200.155 124.604,200.155" fill="#FFFFFF" id="path15996"/>
      <path d="M217.888,201.324 C226.052,195.553 234.476,194.905 241.289,194.905 C245.377,194.905 250.168,195.486 255.225,196.134 C259.312,196.655 263.001,197.048 267.415,197.048 C276.294,197.048 285.239,193.802 289.133,192.113 C290.235,193.481 292.118,195.298 293.608,196.588 C291.725,197.757 279.8,204.232 267.609,204.232 C262.226,204.232 257.108,203.589 252.693,203.002 C248.805,202.487 244.596,202.033 240.508,202.033 C236.038,202.033 227.027,203.329 221.449,205.982 L217.888,201.324 z" fill="#FFFFFF" id="path16000"/>
      <path d="M338.266,224.465 C328.54,244.953 313.757,259.863 298.592,268.487 C291.397,272.569 284.911,275.222 270.915,275.222 L240.64,275.222 C229.817,275.222 223.01,276.651 217.693,278.008 C211.983,279.504 208.355,280.983 202.589,280.983 C194.031,280.983 186.122,276.768 182.3,272.758 L189.429,267.114 L185.862,262.373 C183.79,263.874 158.445,282.606 153.122,286.815 L152.801,286.621 C152.934,285.331 152.934,284.162 152.934,282.988 C152.934,268.731 146.321,265.286 136.279,261.276 L129.472,265.286 C143.28,269.894 146.714,273.588 146.714,283.891 C146.714,292.066 143.795,295.3 139.58,297.771 C135.238,300.296 129.86,301.459 125.13,301.459 C123.119,301.459 122.211,301.858 121.496,302.562 C120.721,303.337 120.328,304.511 120.328,306.129 L120.328,308.399 L121.95,308.399 C130.635,308.399 138.672,307.037 147.489,300.102 L176.208,277.671 C180.29,282.34 190.603,288.82 202.783,288.82 C209.656,288.82 214.065,287.125 220.418,285.513 C225.342,284.273 230.144,283.17 240.645,283.17 L271.048,283.17 C286.611,283.17 294.133,279.93 302.425,275.272 C320.448,265.159 335.812,248.044 344.502,228.398 C342.22,226.991 340.082,225.695 338.266,224.465" fill="#FFFFFF" id="path16004"/>
      <path d="M289.451,248.841 C297.294,236.262 304.295,225.113 321.471,216.035 C319.654,214.938 317.067,213.254 315.705,212.341 C309.031,215.254 302.423,221.092 296.779,226.991 C283.813,240.472 284.976,248.254 271.301,253.51 C267.861,254.806 263.646,256.23 258.268,257.454 C255.089,247.667 247.119,237.941 238.689,237.941 C232.856,237.941 226.11,240.987 218.334,244.421 C209.195,248.442 200.831,253.045 198.173,254.795 L201.74,259.592 C204.459,258.096 212.308,254.202 220.145,250.835 C226.952,247.916 233.111,245.518 237.26,245.518 C243.934,245.518 248.276,253.106 250.686,259.193 C241.929,261.275 227.539,261.79 223.197,261.79 C221.181,261.79 220.472,262.117 219.757,262.699 C219.109,263.28 218.589,264.316 218.267,265.74 L217.752,267.944 L222.41,267.944 C246.664,267.944 269.545,264.122 284.256,255.172 C286.333,255.759 288.15,256.141 290.481,256.141 C298.906,256.141 307.596,251.544 313.041,247.329 C314.979,245.839 315.439,244.471 315.439,242.986 C315.439,242.272 315.372,241.624 315.306,240.97 L315.051,238.445 C307.275,244.598 300.789,249.206 292.752,249.206 C291.334,249.229 290.299,249.096 289.451,248.841" fill="#FFFFFF" id="path16008"/>
    </g>
  </g>
</svg>
